<svg width="16" height="17" viewBox="0 0 16 17" fill="none" xmlns="http://www.w3.org/2000/svg">
<circle cx="8" cy="8.5" r="6" fill="#40196D"/>
<path d="M5 8.4195C5 8.14336 5.22385 7.91951 5.49999 7.91951H10.5C10.7761 7.91951 11 8.14336 11 8.4195V8.4195C11 8.69564 10.7761 8.9195 10.5 8.9195H5.49999C5.22385 8.9195 5 8.69564 5 8.4195V8.4195Z" fill="white"/>
<path d="M8.04492 5.55566C8.32106 5.55566 8.54492 5.77952 8.54492 6.05566L8.54492 11.0557C8.54492 11.3318 8.32106 11.5557 8.04492 11.5557V11.5557C7.76878 11.5557 7.54492 11.3318 7.54492 11.0557L7.54492 6.05566C7.54492 5.77952 7.76878 5.55566 8.04492 5.55566V5.55566Z" fill="white"/>
</svg>
