<svg width="13" height="13" viewBox="0 0 13 13" fill="none" xmlns="http://www.w3.org/2000/svg">
<path d="M11.8607 1.00316H10.3305V0.541617C10.3305 0.419209 10.2767 0.301815 10.1811 0.21526C10.0854 0.128704 9.95568 0.0800781 9.82041 0.0800781C9.68513 0.0800781 9.55539 0.128704 9.45974 0.21526C9.36408 0.301815 9.31034 0.419209 9.31034 0.541617V1.00316H4.20972V0.541617C4.20972 0.419209 4.15598 0.301815 4.06033 0.21526C3.96467 0.128704 3.83493 0.0800781 3.69966 0.0800781C3.56438 0.0800781 3.43464 0.128704 3.33899 0.21526C3.24333 0.301815 3.18959 0.419209 3.18959 0.541617V1.00316H1.65941C1.38894 1.0034 1.12962 1.10073 0.938365 1.27378C0.747112 1.44684 0.639549 1.68149 0.639282 1.92623V11.157C0.639549 11.4017 0.747112 11.6364 0.938365 11.8094C1.12962 11.9825 1.38894 12.0798 1.65941 12.0801H11.8607C12.1311 12.0798 12.3904 11.9825 12.5817 11.8094C12.773 11.6364 12.8805 11.4017 12.8808 11.157V1.92623C12.8805 1.68149 12.773 1.44684 12.5817 1.27378C12.3904 1.10073 12.1311 1.0034 11.8607 1.00316ZM11.8607 3.77239H1.65941V1.92623H3.18959V2.38777C3.18959 2.51018 3.24333 2.62757 3.33899 2.71413C3.43464 2.80068 3.56438 2.84931 3.69966 2.84931C3.83493 2.84931 3.96467 2.80068 4.06033 2.71413C4.15598 2.62757 4.20972 2.51018 4.20972 2.38777V1.92623H9.31034V2.38777C9.31034 2.51018 9.36408 2.62757 9.45974 2.71413C9.55539 2.80068 9.68513 2.84931 9.82041 2.84931C9.95568 2.84931 10.0854 2.80068 10.1811 2.71413C10.2767 2.62757 10.3305 2.51018 10.3305 2.38777V1.92623H11.8607V3.77239Z" fill="black"/>
</svg>
