<svg width="113" height="40" viewBox="0 0 113 40" fill="none" xmlns="http://www.w3.org/2000/svg">
<path d="M66.6076 7.81206V24.9467H61.6363V22.4442C61.0952 23.346 60.385 24.0336 59.5058 24.5071C58.6265 24.9806 57.6345 25.2173 56.5297 25.2173C54.3879 25.2173 52.7872 24.6198 51.7275 23.4249C50.6679 22.23 50.1381 20.4263 50.1381 18.014V7.81206H55.2446V18.1154C55.2446 20.1896 56.1352 21.2267 57.9163 21.2267C58.9759 21.2267 59.8327 20.866 60.4865 20.1445C61.1403 19.4231 61.4672 18.4761 61.4672 17.3038V7.81206H66.6076ZM86.0871 0V24.9467H81.0481V22.4104C80.5296 23.2896 79.7968 23.9773 78.8499 24.4733C77.903 24.9693 76.8321 25.2173 75.6372 25.2173C74.1717 25.2173 72.8641 24.8453 71.7142 24.09C70.5644 23.3347 69.6738 22.2751 69.0313 20.9111C68.3887 19.5471 68.0731 17.9914 68.0731 16.2329C68.0731 14.4743 68.3887 12.9299 69.0313 11.5885C69.6738 10.247 70.5644 9.20989 71.7029 8.47716C72.8415 7.74442 74.1492 7.38369 75.6372 7.38369C76.787 7.38369 77.8354 7.6317 78.7823 8.10515C79.7292 8.58988 80.4619 9.25498 80.9805 10.1117V0H86.0871ZM80.0336 20.0318C80.7099 19.1638 81.0481 17.9238 81.0481 16.3005C81.0481 14.6998 80.7099 13.471 80.0223 12.603C79.3346 11.735 78.3765 11.3066 77.1364 11.3066C75.8739 11.3066 74.8932 11.735 74.1942 12.5917C73.4953 13.4485 73.1459 14.6659 73.1459 16.2441C73.1459 17.8674 73.4953 19.1187 74.1942 20.0092C74.8932 20.8998 75.8739 21.3394 77.1364 21.3394C78.399 21.3282 79.3572 20.8998 80.0336 20.0318ZM105.578 7.81206V24.9467H100.539V22.4104C100.02 23.2896 99.2875 23.9773 98.3406 24.4733C97.3937 24.9693 96.3228 25.2173 95.1279 25.2173C93.6398 25.2173 92.3322 24.8566 91.1936 24.1351C90.0551 23.4136 89.1645 22.3878 88.522 21.0463C87.8794 19.7049 87.5638 18.1605 87.5638 16.4019C87.5638 14.6434 87.8794 13.0765 88.522 11.7012C89.1645 10.3259 90.0551 9.26625 91.2049 8.51097C92.3547 7.7557 93.6624 7.38369 95.1279 7.38369C96.3228 7.38369 97.3937 7.64297 98.3406 8.16152C99.2875 8.68007 100.02 9.37898 100.539 10.2583V7.81206H105.578ZM99.5243 20.0431C100.201 19.1863 100.539 17.9463 100.539 16.323C100.539 14.6998 100.201 13.4597 99.5243 12.5917C98.8479 11.7237 97.8784 11.2954 96.6159 11.2954C95.3533 11.2954 94.3726 11.7463 93.6737 12.6481C92.9747 13.5499 92.6253 14.8012 92.6253 16.4019C92.6253 18.0027 92.9635 19.2201 93.6511 20.0656C94.3388 20.9111 95.3195 21.3282 96.6046 21.3282C97.8784 21.3282 98.8479 20.8998 99.5243 20.0431ZM49.1122 25.1947H42.7769L35.9681 17.4278V25.1947H30.8052V0H35.9681V15.2972L42.4725 7.86842H48.6726L41.3114 16.1878L49.1122 25.1947Z" fill="#40196D"/>
<path d="M16.9881 25.1947L7.07933 13.7867L12.4903 25.1947H8.73643L3.21275 13.5612L5.51241 25.1947H3.20148L0.901825 13.5387V25.1947H0V0H0.901825V12.5692L3.2353 0H5.53495L3.19021 12.6256L8.82661 0H12.5354L6.93278 12.5805L17.1121 0H22.9402L12.4001 13.0088L22.9853 25.1947H16.9881Z" fill="#40196D"/>
<path d="M110.204 24.9247C111.748 24.9247 113 23.673 113 22.129C113 20.585 111.748 19.3334 110.204 19.3334C108.66 19.3334 107.409 20.585 107.409 22.129C107.409 23.673 108.66 24.9247 110.204 24.9247Z" fill="#40196D"/>
<path d="M34.1264 39.0173C33.4224 39.0173 32.8228 38.8741 32.3274 38.5875C31.8321 38.301 31.4508 37.894 31.1836 37.3665C30.9228 36.8325 30.7925 36.2041 30.7925 35.4812C30.7925 34.7583 30.9228 34.1332 31.1836 33.6057C31.4508 33.0782 31.8321 32.6712 32.3274 32.3846C32.8228 32.0981 33.4224 31.9548 34.1264 31.9548C34.6152 31.9548 35.0519 32.0265 35.4364 32.1697C35.821 32.313 36.1567 32.5214 36.4434 32.7949L36.0915 33.6057C35.7786 33.3387 35.4723 33.1466 35.1725 33.0294C34.8792 32.9121 34.537 32.8535 34.1459 32.8535C33.4029 32.8535 32.8358 33.0814 32.4448 33.5373C32.0537 33.9932 31.8581 34.6411 31.8581 35.4812C31.8581 36.3213 32.0537 36.9725 32.4448 37.4349C32.8358 37.8907 33.4029 38.1186 34.1459 38.1186C34.537 38.1186 34.8792 38.06 35.1725 37.9428C35.4723 37.8256 35.7786 37.6302 36.0915 37.3567L36.4434 38.1675C36.1567 38.441 35.821 38.6526 35.4364 38.8024C35.0519 38.9457 34.6152 39.0173 34.1264 39.0173Z" fill="#40196D"/>
<path d="M38.672 35.4812C38.672 34.7583 38.7991 34.1332 39.0533 33.6057C39.3075 33.0782 39.6757 32.6712 40.1581 32.3846C40.6469 32.0981 41.227 31.9548 41.8983 31.9548C42.5631 31.9548 43.1367 32.0981 43.619 32.3846C44.1014 32.6712 44.4729 33.0782 44.7336 33.6057C45.0008 34.1332 45.1344 34.7551 45.1344 35.4714C45.1344 36.1943 45.0008 36.8227 44.7336 37.3567C44.4729 37.8842 44.0981 38.2945 43.6093 38.5875C43.1269 38.8741 42.5566 39.0173 41.8983 39.0173C41.227 39.0173 40.6502 38.8741 40.1678 38.5875C39.6855 38.2945 39.314 37.8842 39.0533 37.3567C38.7991 36.8227 38.672 36.1975 38.672 35.4812ZM39.7377 35.4812C39.7377 36.3148 39.9202 36.966 40.2852 37.4349C40.6502 37.9037 41.1879 38.1382 41.8983 38.1382C42.5892 38.1382 43.1237 37.907 43.5017 37.4446C43.8798 36.9758 44.0688 36.3213 44.0688 35.4812C44.0688 34.6411 43.8798 33.9899 43.5017 33.5275C43.1302 33.0652 42.5957 32.834 41.8983 32.834C41.1879 32.834 40.6502 33.0652 40.2852 33.5275C39.9202 33.9899 39.7377 34.6411 39.7377 35.4812Z" fill="#40196D"/>
<path d="M47.9223 38.9294V32.0427H48.9391V38.06H52.3219V38.9294H47.9223Z" fill="#40196D"/>
<path d="M54.7134 38.9294V32.0427H55.7302V38.06H59.1129V38.9294H54.7134Z" fill="#40196D"/>
<path d="M61.5045 38.9294V32.0427H66.0214V32.8535H62.4919V35.0221H65.7965V35.8426H62.4919V38.1089H66.0214V38.9294H61.5045Z" fill="#40196D"/>
<path d="M71.7576 39.0173C71.0537 39.0173 70.454 38.8741 69.9587 38.5875C69.4633 38.301 69.082 37.894 68.8148 37.3665C68.5541 36.8325 68.4237 36.2041 68.4237 35.4812C68.4237 34.7583 68.5541 34.1332 68.8148 33.6057C69.082 33.0782 69.4633 32.6712 69.9587 32.3846C70.454 32.0981 71.0537 31.9548 71.7576 31.9548C72.2465 31.9548 72.6832 32.0265 73.0677 32.1697C73.4523 32.313 73.7879 32.5214 74.0747 32.7949L73.7228 33.6057C73.4099 33.3387 73.1036 33.1466 72.8037 33.0294C72.5104 32.9121 72.1682 32.8535 71.7772 32.8535C71.0341 32.8535 70.4671 33.0814 70.076 33.5373C69.6849 33.9932 69.4894 34.6411 69.4894 35.4812C69.4894 36.3213 69.6849 36.9725 70.076 37.4349C70.4671 37.8907 71.0341 38.1186 71.7772 38.1186C72.1682 38.1186 72.5104 38.06 72.8037 37.9428C73.1036 37.8256 73.4099 37.6302 73.7228 37.3567L74.0747 38.1675C73.7879 38.441 73.4523 38.6526 73.0677 38.8024C72.6832 38.9457 72.2465 39.0173 71.7576 39.0173Z" fill="#40196D"/>
<path d="M78.3047 38.9294V32.8926H75.9485V32.0427H81.6777V32.8926H79.3215V38.9294H78.3047Z" fill="#40196D"/>
<path d="M84.026 38.9294V32.0427H85.0427V38.9294H84.026Z" fill="#40196D"/>
<path d="M87.8231 35.4812C87.8231 34.7583 87.9502 34.1332 88.2044 33.6057C88.4586 33.0782 88.8269 32.6712 89.3092 32.3846C89.798 32.0981 90.3781 31.9548 91.0495 31.9548C91.7143 31.9548 92.2879 32.0981 92.7702 32.3846C93.2525 32.6712 93.624 33.0782 93.8847 33.6057C94.152 34.1332 94.2856 34.7551 94.2856 35.4714C94.2856 36.1943 94.152 36.8227 93.8847 37.3567C93.624 37.8842 93.2492 38.2945 92.7604 38.5875C92.2781 38.8741 91.7078 39.0173 91.0495 39.0173C90.3781 39.0173 89.8013 38.8741 89.319 38.5875C88.8367 38.2945 88.4651 37.8842 88.2044 37.3567C87.9502 36.8227 87.8231 36.1975 87.8231 35.4812ZM88.8888 35.4812C88.8888 36.3148 89.0713 36.966 89.4363 37.4349C89.8013 37.9037 90.339 38.1382 91.0495 38.1382C91.7404 38.1382 92.2748 37.907 92.6529 37.4446C93.0309 36.9758 93.2199 36.3213 93.2199 35.4812C93.2199 34.6411 93.0309 33.9899 92.6529 33.5275C92.2813 33.0652 91.7469 32.834 91.0495 32.834C90.339 32.834 89.8013 33.0652 89.4363 33.5275C89.0713 33.9899 88.8888 34.6411 88.8888 35.4812Z" fill="#40196D"/>
<path d="M97.0735 38.9294V32.0427H97.8556L102.089 37.5912H101.845V32.0427H102.793V38.9294H102.021L97.7969 33.381H98.0218V38.9294H97.0735Z" fill="#40196D"/>
<path d="M108.13 39.0173C107.576 39.0173 107.074 38.949 106.624 38.8122C106.174 38.6689 105.783 38.4671 105.451 38.2066L105.793 37.4056C106.015 37.5749 106.243 37.7149 106.477 37.8256C106.718 37.9363 106.973 38.021 107.24 38.0796C107.514 38.1317 107.81 38.1577 108.13 38.1577C108.677 38.1577 109.078 38.06 109.332 37.8647C109.593 37.6693 109.723 37.4121 109.723 37.093C109.723 36.8195 109.632 36.6078 109.449 36.458C109.273 36.3083 108.961 36.1878 108.511 36.0966L107.445 35.8817C106.813 35.7515 106.34 35.5398 106.028 35.2468C105.721 34.9472 105.568 34.5402 105.568 34.0257C105.568 33.6089 105.679 33.2443 105.9 32.9317C106.122 32.6191 106.428 32.3781 106.82 32.2088C107.217 32.0395 107.68 31.9548 108.208 31.9548C108.697 31.9548 109.146 32.0265 109.557 32.1697C109.968 32.3065 110.313 32.5116 110.593 32.7851L110.261 33.5568C109.968 33.3029 109.655 33.1173 109.322 33C108.99 32.8763 108.612 32.8144 108.188 32.8144C107.686 32.8144 107.292 32.9186 107.005 33.127C106.725 33.3354 106.585 33.6187 106.585 33.9769C106.585 34.2634 106.673 34.4881 106.849 34.6509C107.031 34.8137 107.331 34.9374 107.748 35.0221L108.814 35.2272C109.472 35.364 109.958 35.5756 110.271 35.8622C110.584 36.1422 110.74 36.5297 110.74 37.0246C110.74 37.4218 110.632 37.7702 110.417 38.0698C110.209 38.3694 109.909 38.6038 109.518 38.7731C109.127 38.9359 108.664 39.0173 108.13 39.0173Z" fill="#40196D"/>
</svg>
