<svg width="16" height="17" viewBox="0 0 16 17" fill="none" xmlns="http://www.w3.org/2000/svg">
<g clip-path="url(#clip0_3180_25332)">
<g clip-path="url(#clip1_3180_25332)">
<rect x="4.6665" y="3.78125" width="7.33333" height="9.33333" fill="#40196D"/>
<path d="M2 0.447998C6.00126 0.447998 9.99747 0.447998 14 0.447998C14 4.76692 14 9.07748 14 13.4028C13.0081 13.4028 12.0193 13.4028 11.0109 13.4028C11.0109 14.4245 11.0109 15.4314 11.0109 16.448C7.99652 16.448 5.00111 16.448 2.00063 16.448C2 11.1112 2 5.78476 2 0.447998ZM7.62099 5.94229C7.62099 6.04324 7.62099 6.10047 7.62099 6.15833C7.62099 7.50603 7.62036 8.85372 7.62225 10.2014C7.62225 10.2856 7.62731 10.3724 7.64628 10.4541C7.68548 10.6206 7.8037 10.7164 7.97187 10.7287C8.13687 10.7409 8.26332 10.6714 8.32654 10.5184C8.36194 10.4329 8.37648 10.3332 8.37711 10.2394C8.38028 8.87558 8.37901 7.51181 8.37901 6.14805C8.37901 6.09211 8.37901 6.03617 8.37901 5.94229C8.77604 6.34544 9.14272 6.71966 9.5113 7.0913C9.56694 7.14724 9.62636 7.20254 9.69275 7.24369C9.82551 7.32535 9.96207 7.32213 10.0904 7.2289C10.2984 7.07716 10.3041 6.81804 10.0986 6.60971C9.50245 6.00595 8.90375 5.40411 8.30567 4.80164C8.08566 4.57981 7.90043 4.57917 7.68231 4.80035C7.13482 5.35589 6.58796 5.91143 6.04109 6.46761C5.96713 6.54284 5.89063 6.61807 5.82677 6.7023C5.72499 6.83797 5.72562 6.99614 5.81666 7.13374C5.90201 7.26298 6.07144 7.33949 6.21685 7.28613C6.30662 7.25334 6.39071 7.18711 6.46025 7.11767C6.84021 6.73959 7.21448 6.35573 7.62099 5.94229Z" fill="#40196D"/>
<path d="M7.62114 5.94219C7.62114 6.04314 7.62114 6.10037 7.62114 6.15824C7.62114 7.50593 7.62051 8.85362 7.6224 10.2013C7.6224 10.2855 7.62746 10.3723 7.64643 10.454C7.68562 10.6205 7.80385 10.7163 7.97201 10.7286C8.13702 10.7408 8.26346 10.6713 8.32669 10.5183C8.36209 10.4328 8.37663 10.3331 8.37726 10.2393C8.38042 8.87548 8.37916 7.51172 8.37916 6.14795C8.37916 6.09201 8.37916 6.03607 8.37916 5.94219C8.77619 6.34534 9.14287 6.71956 9.51145 7.0912C9.56708 7.14714 9.62651 7.20244 9.69289 7.24359C9.82566 7.32525 9.96222 7.32204 10.0906 7.2288C10.2986 7.07706 10.3042 6.81794 10.0988 6.60961C9.5026 6.00585 8.90389 5.40402 8.30582 4.80154C8.08581 4.57971 7.90057 4.57907 7.68246 4.80025C7.13497 5.35579 6.5881 5.91133 6.04124 6.46751C5.96727 6.54274 5.89078 6.61797 5.82692 6.7022C5.72514 6.83787 5.72577 6.99604 5.81681 7.13364C5.90216 7.26288 6.07159 7.3394 6.217 7.28603C6.30677 7.25324 6.39085 7.18701 6.4604 7.11757C6.84036 6.73949 7.21463 6.35563 7.62114 5.94219Z" fill="white"/>
<path d="M11.3867 16.3867C11.3867 15.5373 11.3867 14.6719 11.3867 13.7942C12.2491 13.7942 13.107 13.7942 13.939 13.7942C13.095 14.6513 12.2389 15.5206 11.3867 16.3867Z" fill="#40196D"/>
</g>
</g>
<defs>
<clipPath id="clip0_3180_25332">
<rect width="16" height="16" fill="white" transform="translate(0 0.5)"/>
</clipPath>
<clipPath id="clip1_3180_25332">
<rect width="12" height="16" fill="white" transform="translate(2 0.447998)"/>
</clipPath>
</defs>
</svg>
